<svg width="321" height="370" viewBox="0 0 321 370" fill="none" xmlns="http://www.w3.org/2000/svg">
<path d="M207.701 279.89C207.701 279.89 209.527 273.362 215.931 272.714C217.938 272.511 220.006 273.551 220.006 273.551C222.462 268.425 227.698 264.886 233.762 264.886C241.807 264.886 248.397 271.119 248.965 279.02C249.973 278.805 251.019 278.69 252.091 278.69C260.302 278.69 266.957 285.346 266.957 293.556H203.092" fill="#E0EFFF"/>
<path d="M134.831 241.994C134.831 230.229 125.293 220.691 113.527 220.691C110.546 220.691 107.708 221.304 105.132 222.41C104.428 216.468 99.3759 211.859 93.2452 211.859C91.1625 211.859 89.2038 212.392 87.4978 213.327C83.9784 205.982 76.4752 200.909 67.7868 200.909C56.2573 200.909 46.8145 209.842 45.9998 221.164C44.5552 220.855 43.057 220.691 41.5203 220.691C29.7545 220.691 20.2167 230.229 20.2167 241.994H134.831Z" fill="#E0EFFF"/>
<path d="M94.6025 219.486C93.7403 217.263 91.2413 216.159 89.0161 217.022C86.7931 217.884 85.69 220.385 86.5523 222.608L123.396 317.595C124.059 319.305 125.692 320.353 127.422 320.353C127.941 320.353 128.469 320.258 128.982 320.059C131.205 319.197 132.308 316.696 131.446 314.473L94.6025 219.486Z" fill="#BFDEFF"/>
<path d="M232.029 217.022C229.806 216.158 227.304 217.263 226.442 219.486L189.599 314.473C188.736 316.696 189.839 319.197 192.062 320.059C192.575 320.259 193.103 320.352 193.623 320.352C195.353 320.352 196.986 319.305 197.649 317.595L234.492 222.608C235.355 220.385 234.252 217.884 232.029 217.022Z" fill="#BFDEFF"/>
<path d="M193.473 369.284H127.572C118.667 369.284 111.448 362.066 111.448 353.161V322.657C111.448 316.298 116.604 311.143 122.962 311.143H198.083C204.442 311.143 209.597 316.298 209.597 322.657V353.161C209.596 362.066 202.377 369.284 193.473 369.284Z" fill="#BA7652"/>
<path d="M140.278 369.284V353.902H209.596V345.267H164.84V334.956H180.287C182.671 334.956 184.604 333.023 184.604 330.639C184.604 328.254 182.671 326.321 180.287 326.321H164.84V311.143H156.204V326.321H140.277V311.143H131.642V326.321H111.589V334.956H131.642V369.284H140.278ZM140.278 334.956H156.205V345.267H140.278V334.956Z" fill="#8A5030"/>
<path d="M209.83 13.7332C209.83 13.7332 292.397 -8.54533 317.693 80.3999C338.662 154.13 254.216 239.78 224.713 266.925C218.621 272.529 210.654 275.637 202.377 275.637H160.5L209.83 13.7332Z" fill="#FC5185"/>
<path d="M111.17 13.7332C111.17 13.7332 28.6034 -8.54449 3.30744 80.3999C-17.6619 154.13 66.7836 239.78 96.2873 266.925C102.379 272.529 110.346 275.637 118.623 275.637H160.5L111.17 13.7332Z" fill="#EAAFC1"/>
<path d="M111.17 13.7331C111.17 13.7331 88.2147 7.53764 62.8014 14.7229C48.7619 32.8835 29.6531 68.4837 33.2852 125.037C36.2087 170.562 67.7385 225.537 97.4002 267.903C103.333 272.889 110.839 275.637 118.622 275.637H160.5L111.17 13.7331Z" fill="#F5467B"/>
<path d="M209.83 13.7331C209.83 13.7331 232.784 7.53764 258.197 14.7229C272.236 32.8835 291.346 68.4837 287.714 125.038C284.79 170.563 253.261 225.538 223.599 267.904C217.666 272.89 210.16 275.637 202.377 275.637H160.5L209.83 13.7331Z" fill="#E12760"/>
<path d="M160.5 11.04C160.5 11.04 185.786 -13.5374 222.065 10.6491C258.345 34.8356 266.04 144.803 179.19 275.613C178.09 275.598 160.501 275.613 160.501 275.613V11.04H160.5Z" fill="#FC5185"/>
<path d="M160.5 11.04C160.5 11.04 135.214 -13.5374 98.9338 10.6491C62.6541 34.8356 54.959 144.804 141.81 275.614C142.909 275.598 160.499 275.614 160.499 275.614V11.04H160.5Z" fill="#FF96B6"/>
<path d="M189.936 213.298C189.936 201.633 199.392 192.175 211.059 192.175C214.015 192.175 216.829 192.783 219.383 193.88C220.081 187.989 225.09 183.419 231.169 183.419C233.235 183.419 235.176 183.947 236.867 184.874C240.357 177.591 247.797 172.561 256.411 172.561C267.844 172.561 277.206 181.418 278.014 192.644C279.446 192.337 280.932 192.175 282.455 192.175C294.121 192.175 303.579 201.631 303.579 213.298H189.936V213.298Z" fill="#E0EFFF"/>
<path d="M282.455 192.175C280.931 192.175 279.446 192.338 278.014 192.645C277.206 181.419 267.844 172.562 256.411 172.562C252.181 172.562 248.236 173.781 244.901 175.878C250.575 179.448 254.478 185.576 254.986 192.645C256.419 192.338 257.904 192.175 259.428 192.175C271.094 192.175 280.551 201.632 280.551 213.298H303.578C303.578 201.633 294.122 192.175 282.455 192.175Z" fill="#D4E8FF"/>
<path d="M91.6894 110.42C90.4668 110.42 89.2754 110.551 88.1264 110.797C87.4782 101.791 79.9672 94.6858 70.796 94.6858C66.378 94.6858 62.3506 96.3399 59.2844 99.0557C62.582 101.978 64.763 106.13 65.0989 110.797C66.2478 110.551 67.4397 110.42 68.6619 110.42C78.0209 110.42 85.6073 118.007 85.6073 127.366H108.634C108.635 118.007 101.048 110.42 91.6894 110.42Z" fill="#D4E8FF"/>
<path d="M17.4662 127.366C17.4662 118.007 25.0532 110.42 34.4116 110.42C36.7832 110.42 39.0408 110.908 41.09 111.788C41.6499 107.062 45.6684 103.396 50.5451 103.396C52.202 103.396 53.7594 103.82 55.1168 104.564C57.9159 98.7215 63.8846 94.6863 70.796 94.6863C79.9672 94.6863 87.4782 101.792 88.1264 110.797C89.2754 110.552 90.4673 110.421 91.6894 110.421C101.048 110.421 108.635 118.008 108.635 127.366H17.4662L17.4662 127.366Z" fill="#E0EFFF"/>
</svg>
