<svg width="50" height="50" viewBox="0 0 50 50" fill="none" xmlns="http://www.w3.org/2000/svg">
<ellipse cx="25" cy="25.4902" rx="25" ry="24.5098" fill="#F5F5F5"/>
<path d="M46.6461 12.5131C44.4105 8.66365 41.3782 5.61604 37.5481 3.36958C33.7176 1.123 29.5357 0 24.9996 0C20.4641 0 16.2808 1.12335 12.4511 3.36958C8.6207 5.61593 5.58843 8.66365 3.35287 12.5131C1.11766 16.3624 0 20.5659 0 25.1235C0 30.5981 1.58933 35.5211 4.76879 39.8936C7.94791 44.2664 12.0549 47.2923 17.0893 48.9714C17.6753 49.0807 18.1092 49.0039 18.3912 48.7427C18.6734 48.4813 18.8143 48.1538 18.8143 47.7617C18.8143 47.6963 18.8087 47.1077 18.7979 45.9952C18.7867 44.8827 18.7815 43.9122 18.7815 43.0842L18.0328 43.2143C17.5554 43.3022 16.9532 43.3395 16.2261 43.3289C15.4994 43.3187 14.745 43.2422 13.9639 43.0999C13.1824 42.9588 12.4556 42.6317 11.7828 42.1192C11.1104 41.6067 10.633 40.9358 10.3508 40.1076L10.0253 39.3548C9.80837 38.8536 9.46679 38.2969 9.00013 37.6866C8.53348 37.0758 8.06158 36.6617 7.58422 36.4437L7.3563 36.2797C7.20444 36.1707 7.06352 36.0393 6.9332 35.8868C6.803 35.7343 6.70552 35.5817 6.64042 35.4288C6.57521 35.2759 6.62925 35.1504 6.80312 35.052C6.97698 34.9536 7.2912 34.9058 7.74714 34.9058L8.39792 35.0035C8.83197 35.0909 9.36885 35.3521 10.0093 35.7885C10.6493 36.2246 11.1755 36.7915 11.5879 37.4891C12.0872 38.3835 12.6889 39.065 13.3945 39.534C14.0996 40.003 14.8104 40.2371 15.5264 40.2371C16.2424 40.2371 16.8608 40.1825 17.3819 40.074C17.9023 39.965 18.3906 39.801 18.8466 39.5831C19.0419 38.1212 19.5736 36.9982 20.4414 36.2132C19.2046 36.0826 18.0926 35.8859 17.1049 35.6243C16.1178 35.3624 15.0977 34.9373 14.0454 34.3479C12.9925 33.7593 12.1191 33.0284 11.4248 32.1564C10.7305 31.284 10.1607 30.1387 9.71613 28.7214C9.27137 27.3036 9.04893 25.6681 9.04893 23.8144C9.04893 21.175 9.9063 18.929 11.6207 17.0751C10.8176 15.0908 10.8934 12.8663 11.8484 10.402C12.4777 10.2054 13.411 10.3529 14.6478 10.8434C15.8849 11.3342 16.7906 11.7546 17.3659 12.1031C17.9412 12.4516 18.4022 12.7468 18.7494 12.9863C20.768 12.4195 22.8512 12.136 24.9994 12.136C27.1476 12.136 29.2312 12.4195 31.2499 12.9863L32.4868 12.2016C33.3326 11.6779 34.3315 11.1981 35.481 10.7618C36.6311 10.3259 37.5106 10.2058 38.1185 10.4023C39.0947 12.8668 39.1817 15.0912 38.3784 17.0755C40.0927 18.9294 40.9504 21.1759 40.9504 23.8147C40.9504 25.6684 40.7271 27.3091 40.2831 28.7378C39.8384 30.1667 39.2637 31.3109 38.5586 32.1728C37.8528 33.0346 36.9737 33.7597 35.9214 34.3482C34.8689 34.9372 33.8484 35.3623 32.8613 35.6242C31.8737 35.8861 30.7618 36.083 29.525 36.2138C30.653 37.1949 31.2171 38.7434 31.2171 40.8588V47.7608C31.2171 48.1529 31.3528 48.4802 31.6244 48.7418C31.8956 49.0029 32.324 49.0798 32.91 48.9704C37.9451 47.2915 42.0521 44.2655 45.2311 39.8927C48.4098 35.5202 49.9997 30.5972 49.9997 25.1226C49.9985 20.5656 48.8803 16.3624 46.6461 12.5131Z" fill="black"/>
</svg>
